<?xml version="1.0" encoding="UTF-8"?><svg id="Layer_2" xmlns="http://www.w3.org/2000/svg" viewBox="0 0 120 35"><defs><style>.cls-1{fill:#ed1c24;}.cls-1,.cls-2{fill-rule:evenodd;}.cls-3{fill:#231f20;}</style></defs><g id="Layer_1-2"><g><g><path class="cls-1" d="M58.35,23.55h3.57s1.54,.06,1.54-1.75v-6.89l-9.11,8.21c-.17,.15-.06,.42,.16,.42h3.83Z"/><g><path class="cls-2" d="M21.18,20.09v3.46h4.63V0h-2.57c-2.06,0-2.06,1.75-2.06,1.75V13.26S10.26,1.58,9.25,.93C8.25,.27,6.99,.21,6.99,.21H2.06C0,.21,0,1.95,0,1.95V23.55H4.63V5.65c0-1.02,.93-.93,.93-.93h1.03c.62,0,.95,.08,1.34,.51,.45,.51,9.23,9.67,12.25,12.82,.63,.66,1.01,1.04,1.01,2.02Z"/><path class="cls-2" d="M51,6.79h-17.38c-3.89,0-3.91,3.8-3.91,3.8v9.15c0,3.8,3.91,3.8,3.91,3.8h17.38c3.89,0,3.91-3.8,3.91-3.8V10.59c0-4.02-3.91-3.8-3.91-3.8Zm-.72,10.49s0,1.85-1.85,1.85h-12.24s-1.85,0-1.85-1.85v-4.22s0-1.85,1.85-1.85h12.34s1.75,.11,1.75,1.65v4.42Z"/><path class="cls-2" d="M58.84,18.01V1.75s.01-1.75,2.06-1.75h2.57V13.85l-4.63,4.17Z"/><path class="cls-2" d="M64.8,14.81v-2.16l5.45-4.94s.84-.93,2.36-.93h4.63l-7.61,6.89v.2l7.92,9.67h-5.65l-7.09-8.74Z"/><path class="cls-2" d="M80.74,17.99V1.75s0-1.75,2.06-1.75h2.57V6.79h5.86v4.42h-5.86v5.65s-.08,2.26,1.75,2.26h4.01v4.42h-4.52s-2.71-.01-4.52-1.95c-1.42-1.51-1.34-3.6-1.34-3.6Z"/><path class="cls-2" d="M115.36,8.43c.21-1.67,2.08-1.64,2.08-1.64h2.57V23.55h-4.63V11.21h-13.88s-1.85,0-1.85,1.85v4.22s0,1.85,1.85,1.85h9.32s2.16-.14,2.16,1.75v2.67h-14.05s-3.91-.03-3.91-3.8V10.59s0-3.8,3.91-3.8h13.75c2.69,0,2.69,1.64,2.69,1.64Z"/></g></g><g><path class="cls-3" d="M3.91,34.34c-.41,.41-.99,.6-1.66,.6H0v-6.42H2.25c.67,0,1.25,.2,1.66,.6,.69,.69,.65,1.63,.65,2.56s.04,1.96-.65,2.65Zm-.67-4.51c-.27-.3-.63-.43-1.09-.43H.97v4.67h1.18c.46,0,.82-.14,1.09-.43,.33-.37,.34-1.06,.34-1.95s0-1.49-.34-1.86Z"/><path class="cls-3" d="M6.34,34.95v-6.42h4.1v.87h-3.13v1.87h2.67v.87h-2.67v1.93h3.13v.87H6.34Z"/><path class="cls-3" d="M14.28,29.4v5.54h-.97v-5.54h-1.77v-.87h4.51v.87h-1.77Z"/><path class="cls-3" d="M17.49,34.95v-6.42h4.1v.87h-3.13v1.87h2.67v.87h-2.67v1.93h3.13v.87h-4.1Z"/><path class="cls-3" d="M25.33,35c-.67,0-1.24-.24-1.69-.68-.63-.63-.62-1.34-.62-2.58s0-1.95,.62-2.58c.44-.44,1.02-.68,1.69-.68,1.18,0,2.06,.69,2.29,1.97h-.99c-.15-.65-.59-1.1-1.3-1.1-.38,0-.72,.14-.95,.39-.32,.34-.39,.71-.39,2s.07,1.66,.39,2c.23,.24,.57,.39,.95,.39,.71,0,1.15-.45,1.31-1.1h.98c-.22,1.28-1.13,1.97-2.29,1.97Z"/><path class="cls-3" d="M31.24,29.4v5.54h-.97v-5.54h-1.77v-.87h4.51v.87h-1.77Z"/><path class="cls-3" d="M34.45,34.95v-6.42h.97v6.42h-.97Z"/><path class="cls-3" d="M41.2,34.32c-.44,.44-1.01,.68-1.69,.68s-1.24-.24-1.69-.68c-.63-.63-.62-1.34-.62-2.58s0-1.95,.62-2.58c.44-.44,1-.68,1.69-.68s1.25,.24,1.69,.68c.63,.63,.61,1.34,.61,2.58s.02,1.95-.61,2.58Zm-.74-4.57c-.23-.24-.58-.4-.96-.4s-.73,.15-.96,.4c-.32,.34-.38,.7-.38,1.99s.06,1.65,.38,1.99c.23,.24,.58,.4,.96,.4s.73-.15,.96-.4c.32-.34,.38-.7,.38-1.99s-.06-1.65-.38-1.99Z"/><path class="cls-3" d="M47.53,34.95l-2.97-4.52v4.52h-.97v-6.42h.89l2.97,4.51v-4.51h.97v6.42h-.89Z"/><path class="cls-3" d="M55.1,29.4v5.54h-.97v-5.54h-1.77v-.87h4.51v.87h-1.77Z"/><path class="cls-3" d="M58.31,34.95v-6.42h4.1v.87h-3.13v1.87h2.67v.87h-2.67v1.93h3.13v.87h-4.1Z"/><path class="cls-3" d="M66.15,35c-.67,0-1.24-.24-1.69-.68-.63-.63-.62-1.34-.62-2.58s0-1.95,.62-2.58c.44-.44,1.02-.68,1.69-.68,1.18,0,2.06,.69,2.29,1.97h-.99c-.15-.65-.59-1.1-1.3-1.1-.38,0-.72,.14-.95,.39-.32,.34-.39,.71-.39,2s.07,1.66,.39,2c.23,.24,.57,.39,.95,.39,.71,0,1.15-.45,1.31-1.1h.98c-.22,1.28-1.13,1.97-2.29,1.97Z"/><path class="cls-3" d="M73.65,34.95v-2.8h-2.6v2.8h-.97v-6.42h.97v2.74h2.6v-2.74h.97v6.42h-.97Z"/><path class="cls-3" d="M80.57,34.95l-2.97-4.52v4.52h-.97v-6.42h.89l2.97,4.51v-4.51h.97v6.42h-.89Z"/><path class="cls-3" d="M87.24,34.32c-.44,.44-1.01,.68-1.69,.68s-1.24-.24-1.69-.68c-.63-.63-.62-1.34-.62-2.58s0-1.95,.62-2.58c.44-.44,1-.68,1.69-.68s1.25,.24,1.69,.68c.63,.63,.61,1.34,.61,2.58s.02,1.95-.61,2.58Zm-.74-4.57c-.23-.24-.58-.4-.96-.4s-.73,.15-.96,.4c-.32,.34-.38,.7-.38,1.99s.06,1.65,.38,1.99c.23,.24,.58,.4,.96,.4s.73-.15,.96-.4c.32-.34,.38-.7,.38-1.99s-.06-1.65-.38-1.99Z"/><path class="cls-3" d="M89.63,34.95v-6.42h.97v5.54h3.09v.87h-4.07Z"/><path class="cls-3" d="M98.67,34.32c-.44,.44-1.01,.68-1.69,.68s-1.24-.24-1.69-.68c-.63-.63-.62-1.34-.62-2.58s0-1.95,.62-2.58c.44-.44,1-.68,1.69-.68s1.25,.24,1.69,.68c.63,.63,.61,1.34,.61,2.58s.02,1.95-.61,2.58Zm-.74-4.57c-.23-.24-.58-.4-.96-.4s-.73,.15-.96,.4c-.32,.34-.38,.7-.38,1.99s.06,1.65,.38,1.99c.23,.24,.58,.4,.96,.4s.73-.15,.96-.4c.32-.34,.38-.7,.38-1.99s-.06-1.65-.38-1.99Z"/><path class="cls-3" d="M104.89,34.27c-.49,.51-1.09,.73-1.77,.73s-1.24-.24-1.69-.68c-.63-.63-.62-1.34-.62-2.58s0-1.95,.62-2.58c.44-.44,1-.68,1.69-.68,1.36,0,2.15,.89,2.33,1.99h-.98c-.16-.7-.63-1.12-1.35-1.12-.38,0-.72,.15-.95,.4-.32,.34-.39,.7-.39,1.99s.07,1.66,.39,2c.23,.24,.57,.39,.95,.39,.42,0,.79-.16,1.05-.45,.23-.27,.32-.59,.32-1.01v-.36h-1.37v-.83h2.34v.98c0,.83-.15,1.36-.58,1.81Z"/><path class="cls-3" d="M107.24,34.95v-6.42h.97v6.42h-.97Z"/><path class="cls-3" d="M110.22,34.95v-6.42h4.1v.87h-3.13v1.87h2.67v.87h-2.67v1.93h3.13v.87h-4.1Z"/><path class="cls-3" d="M117.69,35c-.96,0-1.66-.23-2.27-.85l.65-.64c.47,.47,.98,.61,1.64,.61,.84,0,1.33-.36,1.33-.98,0-.28-.08-.51-.25-.67-.16-.15-.32-.22-.7-.27l-.76-.11c-.52-.07-.94-.25-1.22-.51-.32-.3-.47-.7-.47-1.23,0-1.12,.81-1.88,2.15-1.88,.85,0,1.44,.22,1.99,.73l-.62,.61c-.4-.38-.86-.5-1.4-.5-.76,0-1.17,.43-1.17,1,0,.23,.07,.44,.24,.59,.16,.14,.42,.25,.72,.3l.73,.11c.59,.09,.93,.23,1.2,.48,.35,.31,.52,.77,.52,1.32,0,1.18-.96,1.88-2.31,1.88Z"/></g></g></g></svg>